<svg width="48" height="48" viewBox="0 0 48 48" fill="currentColor" xmlns="http://www.w3.org/2000/svg">
<path d="M26.23 3.99387L44.2262 23.9897C44.2268 23.9903 44.2274 23.991 44.228 23.9916C44.6179 24.4217 44.8745 24.9557 44.9665 25.5289C45.0588 26.1029 44.982 26.6914 44.7455 27.2225C44.5091 27.7537 44.1232 28.2045 43.6349 28.5202C43.1473 28.8353 42.5787 29.002 41.9982 29.0001M26.23 3.99387L42 28.0001M26.23 3.99387C25.0746 2.70745 22.9253 2.70745 21.77 3.99387L3.77147 23.9922C3.77143 23.9923 3.77139 23.9923 3.77135 23.9923C3.38253 24.4234 3.1273 24.9581 3.03671 25.5315C2.94619 26.1044 3.02392 26.6913 3.26044 27.2208M26.23 3.99387L4.17397 26.8141M41.9982 29.0001C41.9974 29.0001 41.9965 29 41.9957 29L42 28.0001M41.9982 29.0001H42V28.0001M41.9982 29.0001H39M42 28.0001H39V29.0001M39 29.0001H38V42.0001C38 42.5305 37.7893 43.0392 37.4142 43.4143C37.0391 43.7893 36.5304 44.0001 36 44.0001H30C29.4695 44.0001 28.9608 43.7893 28.5858 43.4143C28.2107 43.0392 28 42.5305 28 42.0001V35.0001H27M39 29.0001V42.0001C39 42.7957 38.6839 43.5588 38.1213 44.1214C37.5587 44.684 36.7956 45.0001 36 45.0001H30C29.2043 45.0001 28.4413 44.684 27.8786 44.1214C27.316 43.5588 27 42.7957 27 42.0001V35.0001M27 35.0001V34.0001H21V35.0001M27 35.0001H21M21 35.0001H20V42.0001C20 42.5305 19.7893 43.0392 19.4142 43.4143C19.0391 43.7893 18.5304 44.0001 18 44.0001H12C11.4695 44.0001 10.9608 43.7893 10.5858 43.4143C10.2107 43.0392 9.99997 42.5305 9.99997 42.0001V29.0001H8.99997M21 35.0001V42.0001C21 42.7957 20.6839 43.5588 20.1213 44.1214C19.5587 44.684 18.7956 45.0001 18 45.0001H12C11.2043 45.0001 10.4413 44.684 9.87865 44.1214C9.31604 43.5588 8.99997 42.7957 8.99997 42.0001V29.0001M8.99997 29.0001V28.0001H5.99997C5.20997 28.0001 4.49397 27.5361 4.17397 26.8141M8.99997 29.0001H5.99997C4.81667 29.0001 3.74175 28.3051 3.26044 27.2208M3.26044 27.2208C3.26067 27.2213 3.2609 27.2219 3.26113 27.2224L4.17397 26.8141M3.26044 27.2208C3.26021 27.2203 3.25997 27.2198 3.25974 27.2193L4.17397 26.8141" fill="url(#paint0_linear_27_54)" stroke="#1C6176" stroke-width="2"/>
<defs>
<linearGradient id="paint0_linear_27_54" x1="24.0022" y1="4.02905" x2="24.0022" y2="44.0001" gradientUnits="userSpaceOnUse">
<stop stop-color="#539AAC"/>
<stop offset="1" stop-color="#4C90A5" stop-opacity="0.42"/>
</linearGradient>
</defs>
</svg>
